<?xml version="1.0" standalone="no"?><!-- Generator: Gravit.io --><svg xmlns="http://www.w3.org/2000/svg" xmlns:xlink="http://www.w3.org/1999/xlink" style="isolation:isolate" viewBox="0 0 560 315" width="560" height="315"><defs><clipPath id="_clipPath_riFP7GG8psXjCO2a9vx8a1GYEtCYjSJz"><rect width="560" height="315"/></clipPath></defs><g clip-path="url(#_clipPath_riFP7GG8psXjCO2a9vx8a1GYEtCYjSJz)"><rect x="0" y="0" width="560" height="315" transform="matrix(1,0,0,1,0,0)" fill="rgb(255,255,255)"/><g><linearGradient id="_lgradient_8" x1="-0.0697067269517078" y1="0.2225000000000001" x2="1.317012202832271" y2="0.9012500000000001" gradientTransform="matrix(80.91,0,0,143.492,479.09,171.508)" gradientUnits="userSpaceOnUse"><stop offset="1.7391304347826086%" stop-opacity="1" style="stop-color:rgb(73,204,227)"/><stop offset="100%" stop-opacity="1" style="stop-color:rgb(32,95,232)"/></linearGradient><path d=" M 559.09 243.254 L 560 171.512 C 559.697 171.509 559.393 171.508 559.09 171.508 C 514.938 171.508 479.09 203.656 479.09 243.254 C 479.09 282.852 514.937 315 559.09 315 C 559.313 315 559.536 314.999 559.759 314.998 L 559.692 307.823 C 559.783 307.823 559.875 307.822 559.966 307.821 L 559.09 243.254 Z  M 559.09 243.254 L 559.692 307.823 C 559.492 307.825 559.291 307.825 559.09 307.825 C 519.353 307.825 487.09 278.892 487.09 243.254 C 487.09 207.616 519.353 178.683 559.09 178.683 C 559.329 178.683 559.569 178.684 559.808 178.686 L 559.09 243.254 L 559.09 243.254 Z " fill-rule="evenodd" fill="url(#_lgradient_8)"/><path d=" M 559.89 279.127 C 537.813 279.127 519.89 263.053 519.89 243.254 C 519.89 223.455 537.813 207.381 559.89 207.381 L 559.89 243.254 L 559.89 279.127 Z " fill="rgb(41,119,231)"/><ellipse vector-effect="non-scaling-stroke" cx="487.089587954584" cy="178.68253968253975" rx="8" ry="7.174603174603163" fill="rgb(72,201,227)"/></g></g></svg>