<?xml version="1.0" standalone="no"?><!-- Generator: Gravit.io --><svg xmlns="http://www.w3.org/2000/svg" xmlns:xlink="http://www.w3.org/1999/xlink" style="isolation:isolate" viewBox="0 0 320 568" width="320" height="568"><defs><clipPath id="_clipPath_9HlSEBEq9mxtYNku2p0OKOjcPoTa4w6N"><rect width="320" height="568"/></clipPath></defs><g clip-path="url(#_clipPath_9HlSEBEq9mxtYNku2p0OKOjcPoTa4w6N)"><rect x="0" y="0" width="320" height="568" transform="matrix(1,0,0,1,0,0)" fill="rgb(255,255,255)"/><g><linearGradient id="_lgradient_7" x1="-0.0697067269517078" y1="0.2225000000000001" x2="1.317012202832271" y2="0.9012500000000001" gradientTransform="matrix(131.206,0,0,232.69,188.794,167.655)" gradientUnits="userSpaceOnUse"><stop offset="1.7391304347826086%" stop-opacity="1" style="stop-color:rgb(73,204,227)"/><stop offset="100%" stop-opacity="1" style="stop-color:rgb(32,95,232)"/></linearGradient><path d=" M 318.524 284 L 320 167.662 C 319.509 167.658 319.016 167.655 318.524 167.655 C 246.926 167.655 188.794 219.787 188.794 284 C 188.794 348.213 246.925 400.345 318.524 400.345 C 318.886 400.345 319.248 400.344 319.61 400.341 L 319.501 388.707 C 319.649 388.706 319.797 388.704 319.944 388.703 L 318.524 284 Z  M 318.524 284 L 319.501 388.707 C 319.176 388.709 318.85 388.71 318.524 388.71 C 254.086 388.71 201.767 341.791 201.767 284 C 201.767 226.209 254.085 179.29 318.524 179.29 C 318.912 179.29 319.301 179.291 319.689 179.295 L 318.524 284 L 318.524 284 Z " fill-rule="evenodd" fill="url(#_lgradient_7)"/><path d=" M 319.821 342.172 C 284.021 342.172 254.956 316.106 254.956 284 C 254.956 251.894 284.021 225.828 319.821 225.828 L 319.821 284 L 319.821 342.172 Z " fill="rgb(41,119,231)"/><ellipse vector-effect="non-scaling-stroke" cx="201.76689938581197" cy="179.28957528957534" rx="12.972972972972968" ry="11.634491634491638" fill="rgb(72,201,227)"/></g></g></svg>