<?xml version="1.0" standalone="no"?><!-- Generator: Gravit.io --><svg xmlns="http://www.w3.org/2000/svg" xmlns:xlink="http://www.w3.org/1999/xlink" style="isolation:isolate" viewBox="0 0 560 315" width="560" height="315"><defs><clipPath id="_clipPath_vuYTN5DUC9pPfhI5KtKzLATof45A8heh"><rect width="560" height="315"/></clipPath></defs><g clip-path="url(#_clipPath_vuYTN5DUC9pPfhI5KtKzLATof45A8heh)"><g><linearGradient id="_lgradient_1" x1="0.8966666666666668" y1="0.8999999999999996" x2="0.0016666666666670382" y2="0.04999999999999971" gradientTransform="matrix(300,0,0,300,130,7.5)" gradientUnits="userSpaceOnUse"><stop offset="0%" stop-opacity="1" style="stop-color:rgb(45,183,245)"/><stop offset="97.82608695652173%" stop-opacity="1" style="stop-color:rgb(45,228,245)"/></linearGradient><path d=" M 429.984 257.663 C 429.995 257.231 430 256.798 430 256.364 L 430 58.636 C 430 30.413 407.087 7.5 378.864 7.5 L 181.136 7.5 C 152.913 7.5 130 30.413 130 58.636 L 130 256.364 C 130 284.587 152.913 307.5 181.136 307.5 L 378.864 307.5 C 379.298 307.5 379.731 307.495 380.163 307.484 L 429.984 257.663 Z " fill-rule="evenodd" fill="url(#_lgradient_1)"/><g><path d="M 264 57.5 L 296 57.5 C 307.038 57.5 316 66.462 316 77.5 L 316 237.5 C 316 248.538 307.038 257.5 296 257.5 L 264 257.5 C 252.962 257.5 244 248.538 244 237.5 L 244 77.5 C 244 66.462 252.962 57.5 264 57.5 Z" style="stroke:none;fill:#FFFFFF;stroke-miterlimit:10;"/><path d="M 180 173.988 L 180 141.012 C 180 130.243 188.743 121.5 199.512 121.5 L 360.488 121.5 C 371.257 121.5 380 130.243 380 141.012 L 380 173.988 C 380 184.757 371.257 193.5 360.488 193.5 L 199.512 193.5 C 188.743 193.5 180 184.757 180 173.988 Z" style="stroke:none;fill:#FFFFFF;stroke-miterlimit:10;"/></g><path d=" M 380.001 307.146 C 380.191 279.823 402.333 257.679 429.646 257.501 L 380.001 307.146 Z " fill-rule="evenodd" fill="rgb(255,255,255)" fill-opacity="0.2"/></g></g></svg>